<svg xmlns="http://www.w3.org/2000/svg" viewBox="0 0 587.73 767.95"><defs><style>.cls-1{fill:#0a2437;}.cls-1,.cls-2{fill-rule:evenodd;}.cls-2{fill:#f69922;}</style></defs><g id="Layer_2" data-name="Layer 2"><g id="Layer_1-2" data-name="Layer 1"><polygon class="cls-1" points="97.61 186.31 244.29 186.26 0.01 430.62 0 283.86 97.61 186.31"/><polygon class="cls-2" points="283.54 163.35 446.88 163.35 283.54 326.7 283.54 163.35"/><polygon class="cls-1" points="587.73 767.95 484.42 767.95 587.73 664.65 587.73 767.95"/><polygon class="cls-2" points="283.52 163.35 120.19 163.35 283.52 0 283.52 163.35"/><path class="cls-1" d="M479.12,163.33l0,146.86-94,94a218.36,218.36,0,0,1,23,260.2c48.38.13,90.3.23,150.79.22L455.3,767.87l-229.94.07h-3.09C101.69,768,4,670.2,4,549.64A217.74,217.74,0,0,1,66.24,396.91C165,296.05,160.3,303.06,260.75,202.71l-.05,146.84C184.94,425.29,217.25,393,141.34,468.7a114.46,114.46,0,1,0,169.85,8.83L221.78,567l0-146.77C343.46,298.54,357.46,285,479.12,163.33"/></g></g></svg>